<?xml version="1.0" encoding="UTF-8" standalone="no"?>
<!DOCTYPE svg PUBLIC "-//W3C//DTD SVG 1.1//EN"
 "http://www.w3.org/Graphics/SVG/1.1/DTD/svg11.dtd">
<!-- Generated by graphviz version 15.1.0 (20260618.0150)
 -->
<!-- Pages: 1 -->
<svg width="825pt" height="848pt"
 viewBox="0.00 0.00 825.00 848.00" xmlns="http://www.w3.org/2000/svg" xmlns:xlink="http://www.w3.org/1999/xlink">
<g id="graph0" class="graph" transform="scale(1 1) rotate(0) translate(4 844.25)">
<polygon fill="#ffffff" stroke="none" points="-4,4 -4,-844.25 820.5,-844.25 820.5,4 -4,4"/>
<!-- X1 -->
<g id="node1" class="node">
<title>X1</title>
<polygon fill="#ffffff" stroke="black" points="180,-159.25 0,-159.25 0,-16.75 180,-16.75 180,-159.25"/>
<polygon fill="none" stroke="black" points="0,-135.5 0,-159.25 180,-159.25 180,-135.5 0,-135.5"/>
<text xml:space="preserve" text-anchor="start" x="81.75" y="-142.5" font-family="arial" font-size="14.00">X1</text>
<polygon fill="none" stroke="black" points="0,-111.75 0,-135.5 92.75,-135.5 92.75,-111.75 0,-111.75"/>
<text xml:space="preserve" text-anchor="start" x="4" y="-118.75" font-family="arial" font-size="14.00">Molex KK 254</text>
<polygon fill="none" stroke="black" points="92.75,-111.75 92.75,-135.5 142,-135.5 142,-111.75 92.75,-111.75"/>
<text xml:space="preserve" text-anchor="start" x="96.75" y="-118.75" font-family="arial" font-size="14.00">female</text>
<polygon fill="none" stroke="black" points="142,-111.75 142,-135.5 180,-135.5 180,-111.75 142,-111.75"/>
<text xml:space="preserve" text-anchor="start" x="146" y="-118.75" font-family="arial" font-size="14.00">4&#45;pin</text>
<polygon fill="none" stroke="black" points="0,-88 0,-111.75 180,-111.75 180,-88 0,-88"/>
<text xml:space="preserve" text-anchor="start" x="86.25" y="-95" font-family="arial" font-size="14.00">1</text>
<polygon fill="none" stroke="black" points="0,-64.25 0,-88 180,-88 180,-64.25 0,-64.25"/>
<text xml:space="preserve" text-anchor="start" x="86.25" y="-71.25" font-family="arial" font-size="14.00">2</text>
<polygon fill="none" stroke="black" points="0,-40.5 0,-64.25 180,-64.25 180,-40.5 0,-40.5"/>
<text xml:space="preserve" text-anchor="start" x="86.25" y="-47.5" font-family="arial" font-size="14.00">3</text>
<polygon fill="none" stroke="black" points="0,-16.75 0,-40.5 180,-40.5 180,-16.75 0,-16.75"/>
<text xml:space="preserve" text-anchor="start" x="86.25" y="-23.75" font-family="arial" font-size="14.00">4</text>
</g>
<!-- W1 -->
<g id="node7" class="node">
<title>W1</title>
<polygon fill="#ffffff" stroke="black" points="481.75,-190 346,-190 346,0 481.75,0 481.75,-190"/>
<polygon fill="none" stroke="black" points="346,-166.25 346,-190 481.75,-190 481.75,-166.25 346,-166.25"/>
<text xml:space="preserve" text-anchor="start" x="403.38" y="-173.25" font-family="arial" font-size="14.00">W1</text>
<polygon fill="none" stroke="black" points="346,-142.5 346,-166.25 369.75,-166.25 369.75,-142.5 346,-142.5"/>
<text xml:space="preserve" text-anchor="start" x="350.75" y="-149.5" font-family="arial" font-size="14.00">4x</text>
<polygon fill="none" stroke="black" points="369.75,-142.5 369.75,-166.25 437.75,-166.25 437.75,-142.5 369.75,-142.5"/>
<text xml:space="preserve" text-anchor="start" x="374.5" y="-149.5" font-family="arial" font-size="14.00">0.25 mm²</text>
<polygon fill="none" stroke="black" points="437.75,-142.5 437.75,-166.25 481.75,-166.25 481.75,-142.5 437.75,-142.5"/>
<text xml:space="preserve" text-anchor="start" x="442.5" y="-149.5" font-family="arial" font-size="14.00">0.5 m</text>
<text xml:space="preserve" text-anchor="start" x="360" y="-127.75" font-family="arial" font-size="14.00"> </text>
<text xml:space="preserve" text-anchor="start" x="348" y="-108" font-family="arial" font-size="14.00">X1:1</text>
<text xml:space="preserve" text-anchor="start" x="379.75" y="-108" font-family="arial" font-size="14.00"> &#160;&#160;&#160;&#160;1:WH &#160;&#160;&#160;</text>
<text xml:space="preserve" text-anchor="start" x="452" y="-108" font-family="arial" font-size="14.00">X2:1</text>
<polygon fill="#000000" stroke="none" points="346,-101 346,-103 481.75,-103 481.75,-101 346,-101"/>
<polygon fill="#ffffff" stroke="none" points="346,-99 346,-101 481.75,-101 481.75,-99 346,-99"/>
<polygon fill="#000000" stroke="none" points="346,-97 346,-99 481.75,-99 481.75,-97 346,-97"/>
<text xml:space="preserve" text-anchor="start" x="348" y="-82.25" font-family="arial" font-size="14.00">X1:2</text>
<text xml:space="preserve" text-anchor="start" x="382" y="-82.25" font-family="arial" font-size="14.00"> &#160;&#160;&#160;&#160;2:BN &#160;&#160;&#160;</text>
<text xml:space="preserve" text-anchor="start" x="452" y="-82.25" font-family="arial" font-size="14.00">X2:2</text>
<polygon fill="#000000" stroke="none" points="346,-75.25 346,-77.25 481.75,-77.25 481.75,-75.25 346,-75.25"/>
<polygon fill="#895956" stroke="none" points="346,-73.25 346,-75.25 481.75,-75.25 481.75,-73.25 346,-73.25"/>
<polygon fill="#000000" stroke="none" points="346,-71.25 346,-73.25 481.75,-73.25 481.75,-71.25 346,-71.25"/>
<text xml:space="preserve" text-anchor="start" x="348" y="-56.5" font-family="arial" font-size="14.00">X1:3</text>
<text xml:space="preserve" text-anchor="start" x="380.88" y="-56.5" font-family="arial" font-size="14.00"> &#160;&#160;&#160;&#160;3:GN &#160;&#160;&#160;</text>
<text xml:space="preserve" text-anchor="start" x="452" y="-56.5" font-family="arial" font-size="14.00">X2:3</text>
<polygon fill="#000000" stroke="none" points="346,-49.5 346,-51.5 481.75,-51.5 481.75,-49.5 346,-49.5"/>
<polygon fill="#00ff00" stroke="none" points="346,-47.5 346,-49.5 481.75,-49.5 481.75,-47.5 346,-47.5"/>
<polygon fill="#000000" stroke="none" points="346,-45.5 346,-47.5 481.75,-47.5 481.75,-45.5 346,-45.5"/>
<text xml:space="preserve" text-anchor="start" x="348" y="-30.75" font-family="arial" font-size="14.00">X1:4</text>
<text xml:space="preserve" text-anchor="start" x="382.38" y="-30.75" font-family="arial" font-size="14.00"> &#160;&#160;&#160;&#160;4:YE &#160;&#160;&#160;</text>
<text xml:space="preserve" text-anchor="start" x="452" y="-30.75" font-family="arial" font-size="14.00">X2:4</text>
<polygon fill="#000000" stroke="none" points="346,-23.75 346,-25.75 481.75,-25.75 481.75,-23.75 346,-23.75"/>
<polygon fill="#ffff00" stroke="none" points="346,-21.75 346,-23.75 481.75,-23.75 481.75,-21.75 346,-21.75"/>
<polygon fill="#000000" stroke="none" points="346,-19.75 346,-21.75 481.75,-21.75 481.75,-19.75 346,-19.75"/>
<text xml:space="preserve" text-anchor="start" x="360" y="-5" font-family="arial" font-size="14.00"> </text>
</g>
<!-- X1&#45;&#45;W1 -->
<g id="edge1" class="edge">
<title>X1:e&#45;&#45;W1:w</title>
<path fill="none" stroke="#000000" stroke-width="2" d="M180,-97.88C253.35,-97.88 271.68,-98 345,-98"/>
<path fill="none" stroke="#ffffff" stroke-width="2" d="M180,-99.88C253.33,-99.88 271.67,-100 345,-100"/>
<path fill="none" stroke="#000000" stroke-width="2" d="M180,-101.87C253.32,-101.87 271.65,-102 345,-102"/>
</g>
<!-- X1&#45;&#45;W1 -->
<g id="edge3" class="edge">
<title>X1:e&#45;&#45;W1:w</title>
<path fill="none" stroke="#000000" stroke-width="2" d="M180,-74.13C253.13,-74.14 271.46,-72.26 345,-72.25"/>
<path fill="none" stroke="#895956" stroke-width="2" d="M180,-76.12C253.34,-76.12 271.66,-74.25 345,-74.25"/>
<path fill="none" stroke="#000000" stroke-width="2" d="M180,-78.12C253.54,-78.11 271.87,-76.24 345,-76.25"/>
</g>
<!-- X1&#45;&#45;W1 -->
<g id="edge5" class="edge">
<title>X1:e&#45;&#45;W1:w</title>
<path fill="none" stroke="#000000" stroke-width="2" d="M180,-50.38C252.94,-50.42 271.23,-46.54 345,-46.5"/>
<path fill="none" stroke="#00ff00" stroke-width="2" d="M180,-52.38C253.35,-52.37 271.65,-48.5 345,-48.5"/>
<path fill="none" stroke="#000000" stroke-width="2" d="M180,-54.37C253.77,-54.33 272.06,-50.46 345,-50.5"/>
</g>
<!-- X1&#45;&#45;W1 -->
<g id="edge7" class="edge">
<title>X1:e&#45;&#45;W1:w</title>
<path fill="none" stroke="#000000" stroke-width="2" d="M180,-26.63C252.77,-26.72 271.01,-20.85 345,-20.75"/>
<path fill="none" stroke="#ffff00" stroke-width="2" d="M180,-28.62C253.38,-28.62 271.62,-22.75 345,-22.75"/>
<path fill="none" stroke="#000000" stroke-width="2" d="M180,-30.62C253.99,-30.53 272.23,-24.65 345,-24.75"/>
</g>
<!-- W3 -->
<g id="node9" class="node">
<title>W3</title>
<polygon fill="#ffffff" stroke="black" points="479.5,-352.25 348.25,-352.25 348.25,-213.75 479.5,-213.75 479.5,-352.25"/>
<polygon fill="none" stroke="black" points="348.25,-328.5 348.25,-352.25 479.5,-352.25 479.5,-328.5 348.25,-328.5"/>
<text xml:space="preserve" text-anchor="start" x="403.38" y="-335.5" font-family="arial" font-size="14.00">W3</text>
<polygon fill="none" stroke="black" points="348.25,-304.75 348.25,-328.5 370.5,-328.5 370.5,-304.75 348.25,-304.75"/>
<text xml:space="preserve" text-anchor="start" x="352.25" y="-311.75" font-family="arial" font-size="14.00">2x</text>
<polygon fill="none" stroke="black" points="370.5,-304.75 370.5,-328.5 437,-328.5 437,-304.75 370.5,-304.75"/>
<text xml:space="preserve" text-anchor="start" x="374.5" y="-311.75" font-family="arial" font-size="14.00">0.25 mm²</text>
<polygon fill="none" stroke="black" points="437,-304.75 437,-328.5 479.5,-328.5 479.5,-304.75 437,-304.75"/>
<text xml:space="preserve" text-anchor="start" x="441" y="-311.75" font-family="arial" font-size="14.00">0.3 m</text>
<text xml:space="preserve" text-anchor="start" x="366.5" y="-290" font-family="arial" font-size="14.00"> </text>
<text xml:space="preserve" text-anchor="start" x="354.5" y="-270.25" font-family="arial" font-size="14.00">X1:1</text>
<text xml:space="preserve" text-anchor="start" x="394.75" y="-270.25" font-family="arial" font-size="14.00"> &#160;&#160;&#160;&#160;1:GN &#160;&#160;&#160;</text>
<polygon fill="#000000" stroke="none" points="348.25,-263.25 348.25,-265.25 479.5,-265.25 479.5,-263.25 348.25,-263.25"/>
<polygon fill="#00ff00" stroke="none" points="348.25,-261.25 348.25,-263.25 479.5,-263.25 479.5,-261.25 348.25,-261.25"/>
<polygon fill="#000000" stroke="none" points="348.25,-259.25 348.25,-261.25 479.5,-261.25 479.5,-259.25 348.25,-259.25"/>
<text xml:space="preserve" text-anchor="start" x="354.5" y="-244.5" font-family="arial" font-size="14.00">X1:2</text>
<text xml:space="preserve" text-anchor="start" x="396.25" y="-244.5" font-family="arial" font-size="14.00"> &#160;&#160;&#160;&#160;2:YE &#160;&#160;&#160;</text>
<polygon fill="#000000" stroke="none" points="348.25,-237.5 348.25,-239.5 479.5,-239.5 479.5,-237.5 348.25,-237.5"/>
<polygon fill="#ffff00" stroke="none" points="348.25,-235.5 348.25,-237.5 479.5,-237.5 479.5,-235.5 348.25,-235.5"/>
<polygon fill="#000000" stroke="none" points="348.25,-233.5 348.25,-235.5 479.5,-235.5 479.5,-233.5 348.25,-233.5"/>
<text xml:space="preserve" text-anchor="start" x="366.5" y="-218.75" font-family="arial" font-size="14.00"> </text>
</g>
<!-- X1&#45;&#45;W3 -->
<g id="edge11" class="edge">
<title>X1:e&#45;&#45;W3:w</title>
<path fill="none" stroke="#000000" stroke-width="2" d="M180,-97.88C285.54,-100.35 245.59,-262.73 347.25,-260.25"/>
<path fill="none" stroke="#00ff00" stroke-width="2" d="M180,-99.88C283.6,-99.88 243.65,-262.25 347.25,-262.25"/>
<path fill="none" stroke="#000000" stroke-width="2" d="M180,-101.87C281.66,-99.4 241.71,-261.77 347.25,-264.25"/>
</g>
<!-- X1&#45;&#45;W3 -->
<g id="edge12" class="edge">
<title>X1:e&#45;&#45;W3:w</title>
<path fill="none" stroke="#000000" stroke-width="2" d="M180,-74.13C284.93,-76.59 246.21,-236.97 347.25,-234.5"/>
<path fill="none" stroke="#ffff00" stroke-width="2" d="M180,-76.12C282.99,-76.13 244.26,-236.5 347.25,-236.5"/>
<path fill="none" stroke="#000000" stroke-width="2" d="M180,-78.12C281.04,-75.66 242.32,-236.03 347.25,-238.5"/>
</g>
<!-- X2 -->
<g id="node2" class="node">
<title>X2</title>
<polygon fill="#ffffff" stroke="black" points="816.5,-159.25 647.75,-159.25 647.75,-16.75 816.5,-16.75 816.5,-159.25"/>
<polygon fill="none" stroke="black" points="647.75,-135.5 647.75,-159.25 816.5,-159.25 816.5,-135.5 647.75,-135.5"/>
<text xml:space="preserve" text-anchor="start" x="723.88" y="-142.5" font-family="arial" font-size="14.00">X2</text>
<polygon fill="none" stroke="black" points="647.75,-111.75 647.75,-135.5 740.5,-135.5 740.5,-111.75 647.75,-111.75"/>
<text xml:space="preserve" text-anchor="start" x="651.75" y="-118.75" font-family="arial" font-size="14.00">Molex KK 254</text>
<polygon fill="none" stroke="black" points="740.5,-111.75 740.5,-135.5 778.5,-135.5 778.5,-111.75 740.5,-111.75"/>
<text xml:space="preserve" text-anchor="start" x="744.5" y="-118.75" font-family="arial" font-size="14.00">male</text>
<polygon fill="none" stroke="black" points="778.5,-111.75 778.5,-135.5 816.5,-135.5 816.5,-111.75 778.5,-111.75"/>
<text xml:space="preserve" text-anchor="start" x="782.5" y="-118.75" font-family="arial" font-size="14.00">4&#45;pin</text>
<polygon fill="none" stroke="black" points="647.75,-88 647.75,-111.75 816.5,-111.75 816.5,-88 647.75,-88"/>
<text xml:space="preserve" text-anchor="start" x="728.38" y="-95" font-family="arial" font-size="14.00">1</text>
<polygon fill="none" stroke="black" points="647.75,-64.25 647.75,-88 816.5,-88 816.5,-64.25 647.75,-64.25"/>
<text xml:space="preserve" text-anchor="start" x="728.38" y="-71.25" font-family="arial" font-size="14.00">2</text>
<polygon fill="none" stroke="black" points="647.75,-40.5 647.75,-64.25 816.5,-64.25 816.5,-40.5 647.75,-40.5"/>
<text xml:space="preserve" text-anchor="start" x="728.38" y="-47.5" font-family="arial" font-size="14.00">3</text>
<polygon fill="none" stroke="black" points="647.75,-16.75 647.75,-40.5 816.5,-40.5 816.5,-16.75 647.75,-16.75"/>
<text xml:space="preserve" text-anchor="start" x="728.38" y="-23.75" font-family="arial" font-size="14.00">4</text>
</g>
<!-- __F1_1 -->
<g id="node3" class="node">
<title>__F1_1</title>
<polygon fill="#ffffff" stroke="black" points="179.88,-611.88 0.12,-611.88 0.12,-588.12 179.88,-588.12 179.88,-611.88"/>
<polygon fill="none" stroke="black" points="0.12,-588.12 0.12,-611.88 86.88,-611.88 86.88,-588.12 0.12,-588.12"/>
<text xml:space="preserve" text-anchor="start" x="4.12" y="-595.12" font-family="arial" font-size="14.00">Crimp ferrule</text>
<polygon fill="none" stroke="black" points="86.88,-588.12 86.88,-611.88 145.88,-611.88 145.88,-588.12 86.88,-588.12"/>
<text xml:space="preserve" text-anchor="start" x="90.88" y="-595.12" font-family="arial" font-size="14.00">0.5 mm²</text>
<polygon fill="none" stroke="black" points="145.88,-588.12 145.88,-611.88 171.88,-611.88 171.88,-588.12 145.88,-588.12"/>
<text xml:space="preserve" text-anchor="start" x="149.88" y="-595.12" font-family="arial" font-size="14.00">YE</text>
<polygon fill="#ffff00" stroke="none" points="171.88,-588.12 171.88,-611.88 179.88,-611.88 179.88,-588.12 171.88,-588.12"/>
<polygon fill="none" stroke="black" points="171.88,-588.12 171.88,-611.88 179.88,-611.88 179.88,-588.12 171.88,-588.12"/>
</g>
<!-- W4 -->
<g id="node10" class="node">
<title>W4</title>
<polygon fill="#ffffff" stroke="black" points="479.5,-678.25 348.25,-678.25 348.25,-539.75 479.5,-539.75 479.5,-678.25"/>
<polygon fill="none" stroke="black" points="348.25,-654.5 348.25,-678.25 479.5,-678.25 479.5,-654.5 348.25,-654.5"/>
<text xml:space="preserve" text-anchor="start" x="403.38" y="-661.5" font-family="arial" font-size="14.00">W4</text>
<polygon fill="none" stroke="black" points="348.25,-630.75 348.25,-654.5 370.5,-654.5 370.5,-630.75 348.25,-630.75"/>
<text xml:space="preserve" text-anchor="start" x="352.25" y="-637.75" font-family="arial" font-size="14.00">2x</text>
<polygon fill="none" stroke="black" points="370.5,-630.75 370.5,-654.5 437,-654.5 437,-630.75 370.5,-630.75"/>
<text xml:space="preserve" text-anchor="start" x="374.5" y="-637.75" font-family="arial" font-size="14.00">0.25 mm²</text>
<polygon fill="none" stroke="black" points="437,-630.75 437,-654.5 479.5,-654.5 479.5,-630.75 437,-630.75"/>
<text xml:space="preserve" text-anchor="start" x="441" y="-637.75" font-family="arial" font-size="14.00">0.2 m</text>
<text xml:space="preserve" text-anchor="start" x="358.88" y="-616" font-family="arial" font-size="14.00"> </text>
<text xml:space="preserve" text-anchor="start" x="383.88" y="-596.25" font-family="arial" font-size="14.00"> &#160;&#160;&#160;&#160;1:BU &#160;&#160;&#160;</text>
<polygon fill="#000000" stroke="none" points="348.25,-589.25 348.25,-591.25 479.5,-591.25 479.5,-589.25 348.25,-589.25"/>
<polygon fill="#0066ff" stroke="none" points="348.25,-587.25 348.25,-589.25 479.5,-589.25 479.5,-587.25 348.25,-587.25"/>
<polygon fill="#000000" stroke="none" points="348.25,-585.25 348.25,-587.25 479.5,-587.25 479.5,-585.25 348.25,-585.25"/>
<text xml:space="preserve" text-anchor="start" x="383.88" y="-570.5" font-family="arial" font-size="14.00"> &#160;&#160;&#160;&#160;2:BN &#160;&#160;&#160;</text>
<polygon fill="#000000" stroke="none" points="348.25,-563.5 348.25,-565.5 479.5,-565.5 479.5,-563.5 348.25,-563.5"/>
<polygon fill="#895956" stroke="none" points="348.25,-561.5 348.25,-563.5 479.5,-563.5 479.5,-561.5 348.25,-561.5"/>
<polygon fill="#000000" stroke="none" points="348.25,-559.5 348.25,-561.5 479.5,-561.5 479.5,-559.5 348.25,-559.5"/>
<text xml:space="preserve" text-anchor="start" x="358.88" y="-544.75" font-family="arial" font-size="14.00"> </text>
</g>
<!-- __F1_1&#45;&#45;W4 -->
<g id="edge13" class="edge">
<title>__F1_1:e&#45;&#45;W4:w</title>
<path fill="none" stroke="#000000" stroke-width="2" d="M180,-598C253.43,-598.32 271.65,-586.57 347.25,-586.25"/>
<path fill="none" stroke="#0066ff" stroke-width="2" d="M180,-600C254.52,-600 272.73,-588.25 347.25,-588.25"/>
<path fill="none" stroke="#000000" stroke-width="2" d="M180,-602C255.6,-601.68 273.82,-589.93 347.25,-590.25"/>
</g>
<!-- __F1_2 -->
<g id="node4" class="node">
<title>__F1_2</title>
<polygon fill="#ffffff" stroke="black" points="179.88,-563.88 0.12,-563.88 0.12,-540.12 179.88,-540.12 179.88,-563.88"/>
<polygon fill="none" stroke="black" points="0.12,-540.12 0.12,-563.88 86.88,-563.88 86.88,-540.12 0.12,-540.12"/>
<text xml:space="preserve" text-anchor="start" x="4.12" y="-547.12" font-family="arial" font-size="14.00">Crimp ferrule</text>
<polygon fill="none" stroke="black" points="86.88,-540.12 86.88,-563.88 145.88,-563.88 145.88,-540.12 86.88,-540.12"/>
<text xml:space="preserve" text-anchor="start" x="90.88" y="-547.12" font-family="arial" font-size="14.00">0.5 mm²</text>
<polygon fill="none" stroke="black" points="145.88,-540.12 145.88,-563.88 171.88,-563.88 171.88,-540.12 145.88,-540.12"/>
<text xml:space="preserve" text-anchor="start" x="149.88" y="-547.12" font-family="arial" font-size="14.00">YE</text>
<polygon fill="#ffff00" stroke="none" points="171.88,-540.12 171.88,-563.88 179.88,-563.88 179.88,-540.12 171.88,-540.12"/>
<polygon fill="none" stroke="black" points="171.88,-540.12 171.88,-563.88 179.88,-563.88 179.88,-540.12 171.88,-540.12"/>
</g>
<!-- __F1_2&#45;&#45;W4 -->
<g id="edge14" class="edge">
<title>__F1_2:e&#45;&#45;W4:w</title>
<path fill="none" stroke="#000000" stroke-width="2" d="M180,-550C255.48,-550.27 273.77,-560.77 347.25,-560.5"/>
<path fill="none" stroke="#895956" stroke-width="2" d="M180,-552C254.48,-552 272.77,-562.5 347.25,-562.5"/>
<path fill="none" stroke="#000000" stroke-width="2" d="M180,-554C253.48,-553.73 271.77,-564.23 347.25,-564.5"/>
</g>
<!-- __F1_3 -->
<g id="node5" class="node">
<title>__F1_3</title>
<polygon fill="#ffffff" stroke="black" points="503.75,-773.88 324,-773.88 324,-750.12 503.75,-750.12 503.75,-773.88"/>
<polygon fill="none" stroke="black" points="324,-750.12 324,-773.88 410.75,-773.88 410.75,-750.12 324,-750.12"/>
<text xml:space="preserve" text-anchor="start" x="328" y="-757.12" font-family="arial" font-size="14.00">Crimp ferrule</text>
<polygon fill="none" stroke="black" points="410.75,-750.12 410.75,-773.88 469.75,-773.88 469.75,-750.12 410.75,-750.12"/>
<text xml:space="preserve" text-anchor="start" x="414.75" y="-757.12" font-family="arial" font-size="14.00">0.5 mm²</text>
<polygon fill="none" stroke="black" points="469.75,-750.12 469.75,-773.88 495.75,-773.88 495.75,-750.12 469.75,-750.12"/>
<text xml:space="preserve" text-anchor="start" x="473.75" y="-757.12" font-family="arial" font-size="14.00">YE</text>
<polygon fill="#ffff00" stroke="none" points="495.75,-750.12 495.75,-773.88 503.75,-773.88 503.75,-750.12 495.75,-750.12"/>
<polygon fill="none" stroke="black" points="495.75,-750.12 495.75,-773.88 503.75,-773.88 503.75,-750.12 495.75,-750.12"/>
</g>
<!-- __F1_4 -->
<g id="node6" class="node">
<title>__F1_4</title>
<polygon fill="#ffffff" stroke="black" points="503.75,-725.88 324,-725.88 324,-702.12 503.75,-702.12 503.75,-725.88"/>
<polygon fill="none" stroke="black" points="324,-702.12 324,-725.88 410.75,-725.88 410.75,-702.12 324,-702.12"/>
<text xml:space="preserve" text-anchor="start" x="328" y="-709.12" font-family="arial" font-size="14.00">Crimp ferrule</text>
<polygon fill="none" stroke="black" points="410.75,-702.12 410.75,-725.88 469.75,-725.88 469.75,-702.12 410.75,-702.12"/>
<text xml:space="preserve" text-anchor="start" x="414.75" y="-709.12" font-family="arial" font-size="14.00">0.5 mm²</text>
<polygon fill="none" stroke="black" points="469.75,-702.12 469.75,-725.88 495.75,-725.88 495.75,-702.12 469.75,-702.12"/>
<text xml:space="preserve" text-anchor="start" x="473.75" y="-709.12" font-family="arial" font-size="14.00">YE</text>
<polygon fill="#ffff00" stroke="none" points="495.75,-702.12 495.75,-725.88 503.75,-725.88 503.75,-702.12 495.75,-702.12"/>
<polygon fill="none" stroke="black" points="495.75,-702.12 495.75,-725.88 503.75,-725.88 503.75,-702.12 495.75,-702.12"/>
</g>
<!-- W1&#45;&#45;X2 -->
<g id="edge2" class="edge">
<title>W1:e&#45;&#45;X2:w</title>
<path fill="none" stroke="#000000" stroke-width="2" d="M482.75,-98C556.07,-98 574.4,-97.88 647.75,-97.88"/>
<path fill="none" stroke="#ffffff" stroke-width="2" d="M482.75,-100C556.08,-100 574.42,-99.88 647.75,-99.88"/>
<path fill="none" stroke="#000000" stroke-width="2" d="M482.75,-102C556.1,-102 574.43,-101.87 647.75,-101.87"/>
</g>
<!-- W1&#45;&#45;X2 -->
<g id="edge4" class="edge">
<title>W1:e&#45;&#45;X2:w</title>
<path fill="none" stroke="#000000" stroke-width="2" d="M482.75,-72.25C556.29,-72.26 574.62,-74.14 647.75,-74.13"/>
<path fill="none" stroke="#895956" stroke-width="2" d="M482.75,-74.25C556.09,-74.25 574.41,-76.12 647.75,-76.12"/>
<path fill="none" stroke="#000000" stroke-width="2" d="M482.75,-76.25C555.88,-76.24 574.21,-78.11 647.75,-78.12"/>
</g>
<!-- W1&#45;&#45;X2 -->
<g id="edge6" class="edge">
<title>W1:e&#45;&#45;X2:w</title>
<path fill="none" stroke="#000000" stroke-width="2" d="M482.75,-46.5C556.52,-46.54 574.81,-50.42 647.75,-50.38"/>
<path fill="none" stroke="#00ff00" stroke-width="2" d="M482.75,-48.5C556.1,-48.5 574.4,-52.37 647.75,-52.38"/>
<path fill="none" stroke="#000000" stroke-width="2" d="M482.75,-50.5C555.69,-50.46 573.98,-54.33 647.75,-54.37"/>
</g>
<!-- W1&#45;&#45;X2 -->
<g id="edge8" class="edge">
<title>W1:e&#45;&#45;X2:w</title>
<path fill="none" stroke="#000000" stroke-width="2" d="M482.75,-20.75C556.74,-20.85 574.98,-26.72 647.75,-26.63"/>
<path fill="none" stroke="#ffff00" stroke-width="2" d="M482.75,-22.75C556.13,-22.75 574.37,-28.62 647.75,-28.63"/>
<path fill="none" stroke="#000000" stroke-width="2" d="M482.75,-24.75C555.52,-24.65 573.76,-30.53 647.75,-30.62"/>
</g>
<!-- W2 -->
<g id="node8" class="node">
<title>W2</title>
<polygon fill="#ffffff" stroke="black" points="479.5,-515.25 348.25,-515.25 348.25,-376.75 479.5,-376.75 479.5,-515.25"/>
<polygon fill="none" stroke="black" points="348.25,-491.5 348.25,-515.25 479.5,-515.25 479.5,-491.5 348.25,-491.5"/>
<text xml:space="preserve" text-anchor="start" x="403.38" y="-498.5" font-family="arial" font-size="14.00">W2</text>
<polygon fill="none" stroke="black" points="348.25,-467.75 348.25,-491.5 370.5,-491.5 370.5,-467.75 348.25,-467.75"/>
<text xml:space="preserve" text-anchor="start" x="352.25" y="-474.75" font-family="arial" font-size="14.00">2x</text>
<polygon fill="none" stroke="black" points="370.5,-467.75 370.5,-491.5 437,-491.5 437,-467.75 370.5,-467.75"/>
<text xml:space="preserve" text-anchor="start" x="374.5" y="-474.75" font-family="arial" font-size="14.00">0.25 mm²</text>
<polygon fill="none" stroke="black" points="437,-467.75 437,-491.5 479.5,-491.5 479.5,-467.75 437,-467.75"/>
<text xml:space="preserve" text-anchor="start" x="441" y="-474.75" font-family="arial" font-size="14.00">0.3 m</text>
<text xml:space="preserve" text-anchor="start" x="354.12" y="-453" font-family="arial" font-size="14.00"> </text>
<text xml:space="preserve" text-anchor="start" x="369.62" y="-433.25" font-family="arial" font-size="14.00"> &#160;&#160;&#160;&#160;1:RD &#160;&#160;&#160;</text>
<text xml:space="preserve" text-anchor="start" x="445.88" y="-433.25" font-family="arial" font-size="14.00">X2:1</text>
<polygon fill="#000000" stroke="none" points="348.25,-426.25 348.25,-428.25 479.5,-428.25 479.5,-426.25 348.25,-426.25"/>
<polygon fill="#ff0000" stroke="none" points="348.25,-424.25 348.25,-426.25 479.5,-426.25 479.5,-424.25 348.25,-424.25"/>
<polygon fill="#000000" stroke="none" points="348.25,-422.25 348.25,-424.25 479.5,-424.25 479.5,-422.25 348.25,-422.25"/>
<text xml:space="preserve" text-anchor="start" x="370.38" y="-407.5" font-family="arial" font-size="14.00"> &#160;&#160;&#160;&#160;2:BK &#160;&#160;&#160;</text>
<text xml:space="preserve" text-anchor="start" x="445.88" y="-407.5" font-family="arial" font-size="14.00">X2:2</text>
<polygon fill="#000000" stroke="none" points="348.25,-400.5 348.25,-402.5 479.5,-402.5 479.5,-400.5 348.25,-400.5"/>
<polygon fill="#000000" stroke="none" points="348.25,-398.5 348.25,-400.5 479.5,-400.5 479.5,-398.5 348.25,-398.5"/>
<polygon fill="#000000" stroke="none" points="348.25,-396.5 348.25,-398.5 479.5,-398.5 479.5,-396.5 348.25,-396.5"/>
<text xml:space="preserve" text-anchor="start" x="354.12" y="-381.75" font-family="arial" font-size="14.00"> </text>
</g>
<!-- W2&#45;&#45;X2 -->
<g id="edge9" class="edge">
<title>W2:e&#45;&#45;X2:w</title>
<path fill="none" stroke="#000000" stroke-width="2" d="M480.5,-423.25C641.3,-426.12 483.35,-100.75 647.75,-97.88"/>
<path fill="none" stroke="#ff0000" stroke-width="2" d="M480.5,-425.25C643.1,-425.25 485.15,-99.87 647.75,-99.88"/>
<path fill="none" stroke="#000000" stroke-width="2" d="M480.5,-427.25C644.9,-424.38 486.95,-99 647.75,-101.87"/>
</g>
<!-- W2&#45;&#45;X2 -->
<g id="edge10" class="edge">
<title>W2:e&#45;&#45;X2:w</title>
<path fill="none" stroke="#000000" stroke-width="2" d="M480.5,-397.5C640.51,-400.37 484.14,-77 647.75,-74.13"/>
<path fill="none" stroke="#000000" stroke-width="2" d="M480.5,-399.5C642.31,-399.5 485.94,-76.12 647.75,-76.12"/>
<path fill="none" stroke="#000000" stroke-width="2" d="M480.5,-401.5C644.11,-398.63 487.74,-75.25 647.75,-78.12"/>
</g>
<!-- W5 -->
<g id="node11" class="node">
<title>W5</title>
<polygon fill="#ffffff" stroke="black" points="155.62,-840.25 24.38,-840.25 24.38,-701.75 155.62,-701.75 155.62,-840.25"/>
<polygon fill="none" stroke="black" points="24.38,-816.5 24.38,-840.25 155.62,-840.25 155.62,-816.5 24.38,-816.5"/>
<text xml:space="preserve" text-anchor="start" x="79.5" y="-823.5" font-family="arial" font-size="14.00">W5</text>
<polygon fill="none" stroke="black" points="24.38,-792.75 24.38,-816.5 46.62,-816.5 46.62,-792.75 24.38,-792.75"/>
<text xml:space="preserve" text-anchor="start" x="28.38" y="-799.75" font-family="arial" font-size="14.00">2x</text>
<polygon fill="none" stroke="black" points="46.62,-792.75 46.62,-816.5 113.12,-816.5 113.12,-792.75 46.62,-792.75"/>
<text xml:space="preserve" text-anchor="start" x="50.62" y="-799.75" font-family="arial" font-size="14.00">0.25 mm²</text>
<polygon fill="none" stroke="black" points="113.12,-792.75 113.12,-816.5 155.62,-816.5 155.62,-792.75 113.12,-792.75"/>
<text xml:space="preserve" text-anchor="start" x="117.12" y="-799.75" font-family="arial" font-size="14.00">0.2 m</text>
<text xml:space="preserve" text-anchor="start" x="34.62" y="-778" font-family="arial" font-size="14.00"> </text>
<text xml:space="preserve" text-anchor="start" x="59.62" y="-758.25" font-family="arial" font-size="14.00"> &#160;&#160;&#160;&#160;1:RD &#160;&#160;&#160;</text>
<polygon fill="#000000" stroke="none" points="24.38,-751.25 24.38,-753.25 155.62,-753.25 155.62,-751.25 24.38,-751.25"/>
<polygon fill="#ff0000" stroke="none" points="24.38,-749.25 24.38,-751.25 155.62,-751.25 155.62,-749.25 24.38,-749.25"/>
<polygon fill="#000000" stroke="none" points="24.38,-747.25 24.38,-749.25 155.62,-749.25 155.62,-747.25 24.38,-747.25"/>
<text xml:space="preserve" text-anchor="start" x="58.88" y="-732.5" font-family="arial" font-size="14.00"> &#160;&#160;&#160;&#160;2:GN &#160;&#160;&#160;</text>
<polygon fill="#000000" stroke="none" points="24.38,-725.5 24.38,-727.5 155.62,-727.5 155.62,-725.5 24.38,-725.5"/>
<polygon fill="#00ff00" stroke="none" points="24.38,-723.5 24.38,-725.5 155.62,-725.5 155.62,-723.5 24.38,-723.5"/>
<polygon fill="#000000" stroke="none" points="24.38,-721.5 24.38,-723.5 155.62,-723.5 155.62,-721.5 24.38,-721.5"/>
<text xml:space="preserve" text-anchor="start" x="34.62" y="-706.75" font-family="arial" font-size="14.00"> </text>
</g>
<!-- W5&#45;&#45;__F1_3 -->
<g id="edge15" class="edge">
<title>W5:e&#45;&#45;__F1_3:w</title>
<path fill="none" stroke="#000000" stroke-width="2" d="M156.62,-748.25C232.28,-748.57 250.51,-760.32 324,-760"/>
<path fill="none" stroke="#ff0000" stroke-width="2" d="M156.62,-750.25C231.2,-750.25 249.43,-762 324,-762"/>
<path fill="none" stroke="#000000" stroke-width="2" d="M156.62,-752.25C230.11,-751.93 248.34,-763.68 324,-764"/>
</g>
<!-- W5&#45;&#45;__F1_4 -->
<g id="edge16" class="edge">
<title>W5:e&#45;&#45;__F1_4:w</title>
<path fill="none" stroke="#000000" stroke-width="2" d="M156.62,-722.5C230.16,-722.77 248.47,-712.27 324,-712"/>
<path fill="none" stroke="#00ff00" stroke-width="2" d="M156.62,-724.5C231.16,-724.5 249.46,-714 324,-714"/>
<path fill="none" stroke="#000000" stroke-width="2" d="M156.62,-726.5C232.16,-726.23 250.46,-715.73 324,-716"/>
</g>
</g>
</svg>
